<svg width="29" height="29" viewBox="0 0 29 29" fill="none" xmlns="http://www.w3.org/2000/svg">
<path fill-rule="evenodd" clip-rule="evenodd" d="M13.6783 7.46265H6.04167C4.70646 7.46265 3.625 8.60935 3.625 10.0219V22.8157C3.625 24.2295 4.70646 25.375 6.04167 25.375H19.3333C20.6685 25.375 21.75 24.2295 21.75 22.8157V13.4511L17.0206 18.4585C16.6076 18.9001 16.0697 19.2053 15.4788 19.3333L12.2392 20.0196C10.1246 20.4667 8.26137 18.4935 8.68429 16.2557L9.33196 12.8252C9.44917 12.2066 9.73675 11.6374 10.1585 11.1916L13.6783 7.46265Z" fill="#1947AA"/>
<path fill-rule="evenodd" clip-rule="evenodd" d="M23.9806 5.21759C23.8584 4.90829 23.6793 4.62466 23.4525 4.38142C23.2296 4.14353 22.9608 3.95323 22.6623 3.82196C22.3683 3.69283 22.0506 3.62616 21.7295 3.62616C21.4083 3.62616 21.0907 3.69283 20.7966 3.82196C20.4982 3.95323 20.2294 4.14353 20.0064 4.38142L19.3466 5.07984L22.7928 8.729L23.4525 8.02938C23.6817 7.78798 23.8611 7.50387 23.9806 7.19321C24.2295 6.55819 24.2295 5.8526 23.9806 5.21759ZM21.0854 10.5379L17.638 6.8875L11.8658 13.0017C11.7807 13.0924 11.7232 13.2056 11.7003 13.3279L11.0526 16.7596C10.968 17.2067 11.3414 17.6006 11.7631 17.5112L15.0039 16.826C15.1218 16.7998 15.2291 16.7387 15.312 16.6508L21.0854 10.5379Z" fill="#1947AA"/>
</svg>
