<svg width="30" height="30" viewBox="0 0 30 30" fill="none" xmlns="http://www.w3.org/2000/svg">
<path fill-rule="evenodd" clip-rule="evenodd" d="M17.0831 8.74313C16.6739 9.02686 16.2122 9.22624 15.7251 9.32965C15.238 9.43305 14.7352 9.4384 14.246 9.34538C13.7568 9.25236 13.291 9.06284 12.8758 8.78788C12.4606 8.51291 12.1044 8.15801 11.8278 7.74389C11.5513 7.32976 11.36 6.8647 11.2651 6.37586C11.1703 5.88701 11.1737 5.38416 11.2753 4.89665C11.3768 4.40915 11.5744 3.94675 11.8566 3.53644C12.1388 3.12614 12.4998 2.77614 12.9187 2.50688C13.7458 1.96061 14.7554 1.76398 15.727 1.95997C16.6986 2.15595 17.5531 2.72861 18.1037 3.55277C18.6543 4.37693 18.8562 5.38554 18.6653 6.35814C18.4744 7.33074 17.9063 8.18822 17.085 8.74313H17.0831ZM16.0425 4.06688C15.8383 3.91998 15.6066 3.81567 15.3613 3.76016C15.116 3.70465 14.8619 3.69908 14.6144 3.74377C14.3669 3.78846 14.1308 3.8825 13.9204 4.0203C13.71 4.15809 13.5294 4.33682 13.3895 4.54585C13.2495 4.75487 13.1531 4.98992 13.1059 5.23699C13.0586 5.48406 13.0616 5.73811 13.1146 5.984C13.1676 6.2299 13.2696 6.46262 13.4144 6.6683C13.5592 6.87399 13.7439 7.04843 13.9575 7.18125C14.3702 7.43196 14.8637 7.51377 15.3353 7.40964C15.8068 7.30552 16.22 7.02348 16.4887 6.62228C16.7575 6.22108 16.8611 5.73166 16.778 5.25598C16.6948 4.78029 16.4314 4.35502 16.0425 4.06875V4.06688ZM20.9362 4.12313C21.477 3.75938 22.1277 3.59557 22.7762 3.65991C23.4248 3.72425 24.0306 4.01272 24.4894 4.47563C24.8163 4.80515 25.0573 5.20986 25.1914 5.65425C25.3254 6.09864 25.3484 6.56914 25.2583 7.02447C25.1681 7.47981 24.9676 7.90607 24.6744 8.26586C24.3811 8.62566 24.004 8.908 23.5762 9.08813C23.0625 9.30346 22.4962 9.36031 21.9499 9.2514C21.4037 9.14248 20.9025 8.87276 20.5106 8.47688C20.2159 8.18066 19.9903 7.82296 19.85 7.42937C19.7097 7.03579 19.6581 6.61606 19.699 6.20021C19.7398 5.78436 19.8721 5.38269 20.0863 5.02393C20.3005 4.66518 20.5914 4.35821 20.9381 4.125L20.9362 4.12313ZM21.8362 7.14188C22.0123 7.31717 22.2507 7.41535 22.4992 7.41482C22.6222 7.41456 22.7439 7.39007 22.8575 7.34276C22.971 7.29544 23.0741 7.22623 23.1609 7.13906C23.2477 7.0519 23.3165 6.94849 23.3633 6.83475C23.4102 6.721 23.4341 6.59915 23.4339 6.47614C23.4336 6.35313 23.4091 6.23138 23.3618 6.11783C23.3145 6.00429 23.2453 5.90117 23.1581 5.81438C22.9846 5.63728 22.7479 5.53615 22.5 5.53313C22.3764 5.53312 22.254 5.55756 22.1399 5.60502C22.0258 5.65249 21.9222 5.72205 21.8351 5.8097C21.748 5.89735 21.679 6.00136 21.6322 6.11576C21.5855 6.23015 21.5618 6.35266 21.5625 6.47625C21.5618 6.60008 21.5856 6.72282 21.6326 6.83739C21.6796 6.95196 21.7488 7.05421 21.8362 7.14188ZM5.98124 23.4131H9.37499V25.2975H5.98124C5.38727 25.2915 4.81975 25.0509 4.40249 24.6281C4.19441 24.4183 4.02968 24.1696 3.91773 23.8961C3.80577 23.6227 3.74877 23.3299 3.74999 23.0344V19.6406C3.49761 19.6319 3.2496 19.5722 3.02084 19.4652C2.79208 19.3583 2.58728 19.2062 2.41874 19.0181C2.23925 18.8374 2.09847 18.622 2.00498 18.385C1.9115 18.1481 1.86727 17.8946 1.87499 17.64V13.5487C1.88062 12.6638 2.23124 11.8181 2.84999 11.19C3.46687 10.5694 4.30124 10.215 5.17499 10.2094H8.62499C8.15914 10.7632 7.80854 11.4045 7.59374 12.0956H5.17499C4.79453 12.1069 4.43258 12.2624 4.16249 12.5306C3.89792 12.8035 3.74997 13.1687 3.74999 13.5487V17.7338H5.62499V23.0325C5.62042 23.0836 5.62639 23.1351 5.64251 23.1838C5.65864 23.2325 5.68458 23.2774 5.71874 23.3156C5.79412 23.3739 5.88603 23.4067 5.98124 23.4094V23.4131ZM19.6687 11.1919C19.3616 10.8825 18.9966 10.6367 18.5944 10.4684C18.1923 10.3001 17.7609 10.2128 17.325 10.2113H12.675C11.8011 10.2193 10.9657 10.5716 10.35 11.1919C9.73124 11.82 9.38062 12.6656 9.37499 13.5506V19.5094C9.37234 20.021 9.5671 20.514 9.91874 20.8856C10.0873 21.0737 10.2921 21.2258 10.5208 21.3327C10.7496 21.4397 10.9976 21.4994 11.25 21.5081V25.8638C11.248 26.1611 11.305 26.4558 11.4177 26.731C11.5303 27.0062 11.6964 27.2563 11.9062 27.4669C12.2437 27.7819 12.6694 27.9863 13.125 28.0519H16.875C17.4024 27.9826 17.8856 27.7209 18.2317 27.317C18.5778 26.9131 18.7624 26.3955 18.75 25.8638V21.5063C19.0024 21.4975 19.2504 21.4378 19.4791 21.3309C19.7079 21.2239 19.9127 21.0718 20.0812 20.8837C20.2605 20.7032 20.4011 20.4881 20.4946 20.2515C20.5881 20.0149 20.6325 19.7618 20.625 19.5075V13.5487C20.6263 12.6678 20.2831 11.8232 19.6687 11.1919ZM18.75 19.6013H16.875V25.8638C16.8736 25.9627 16.8331 26.057 16.7625 26.1263C16.7305 26.1641 16.6901 26.194 16.6445 26.2135C16.599 26.2331 16.5495 26.2417 16.5 26.2388H13.4812C13.3833 26.2342 13.2905 26.1932 13.2211 26.1239C13.1518 26.0545 13.1108 25.9617 13.1062 25.8638V19.6013H11.25V13.5487C11.25 13.1681 11.3981 12.8025 11.6625 12.5306C11.9326 12.2624 12.2945 12.1069 12.675 12.0956H17.325C17.6089 12.1011 17.8851 12.1891 18.1198 12.349C18.3546 12.5088 18.5377 12.7335 18.6469 12.9956C18.7158 13.1718 18.7508 13.3595 18.75 13.5487V19.6013ZM24.0187 25.2956H20.625V23.4113H24C24.0952 23.4086 24.1871 23.3757 24.2625 23.3175C24.3003 23.2806 24.3298 23.2361 24.3492 23.187C24.3686 23.1379 24.3774 23.0852 24.375 23.0325V17.7338H26.25V13.5487C26.25 13.1687 26.1021 12.8035 25.8375 12.5306C25.5674 12.2624 25.2055 12.1069 24.825 12.0956H22.4062C22.1914 11.4045 21.8408 10.7632 21.375 10.2094H24.825C25.6989 10.2174 26.5343 10.5698 27.15 11.19C27.7687 11.8181 28.1194 12.6638 28.125 13.5487V17.64C28.125 18.1519 27.9319 18.6431 27.5831 19.0144C27.2344 19.3875 26.7581 19.6106 26.25 19.6388V23.0325C26.25 23.6306 26.0156 24.2025 25.5975 24.6263C25.1802 25.049 24.6127 25.2896 24.0187 25.2956ZM7.49999 3.64688C6.94182 3.64522 6.39594 3.8108 5.93275 4.12227C5.46955 4.43374 5.11028 4.87682 4.90124 5.39438C4.69016 5.91129 4.63557 6.47881 4.74423 7.02648C4.8529 7.57415 5.12004 8.07784 5.51249 8.475C5.90543 8.87131 6.40758 9.14148 6.95481 9.25101C7.50204 9.36055 8.0695 9.30446 8.5847 9.08993C9.0999 8.8754 9.53946 8.51215 9.84721 8.0466C10.155 7.58105 10.317 7.03432 10.3125 6.47625C10.3125 5.72625 10.0162 5.00625 9.48749 4.47563C9.22688 4.21371 8.91722 4.00571 8.5762 3.86351C8.23518 3.7213 7.86948 3.64769 7.49999 3.64688ZM7.49999 7.41938C7.3764 7.41938 7.25403 7.39494 7.13992 7.34748C7.02581 7.30001 6.92221 7.23045 6.83508 7.1428C6.74795 7.05515 6.67902 6.95114 6.63224 6.83674C6.58545 6.72235 6.56175 6.59984 6.56249 6.47625C6.56298 6.22724 6.66173 5.98848 6.83728 5.81188C7.01283 5.63528 7.25099 5.5351 7.49999 5.53313C7.74809 5.53797 7.98458 5.63906 8.15952 5.81505C8.33446 5.99103 8.43413 6.22813 8.43749 6.47625C8.43701 6.72526 8.33826 6.96402 8.16271 7.14062C7.98716 7.31722 7.749 7.4174 7.49999 7.41938Z" fill="#EFF2F9"/>
</svg>
